inDegrees=yes
name=ik_S47_A04_T02
DataType=double
version=3
OpenSimVersion=4.3-2021-08-27-4bc7ad9
endheader
time	pelvis_tilt	pelvis_list	pelvis_rotation	pelvis_tx	pelvis_ty	pelvis_tz	hip_flexion_r	hip_adduction_r	hip_rotation_r	knee_angle_r	knee_angle_r_beta	ankle_angle_r	subtalar_angle_r	mtp_angle_r	hip_flexion_l	hip_adduction_l	hip_rotation_l	knee_angle_l	knee_angle_l_beta	ankle_angle_l	subtalar_angle_l	mtp_angle_l	lumbar_extension	lumbar_bending	lumbar_rotation	arm_flex_r	arm_add_r	arm_rot_r	elbow_flex_r	pro_sup_r	wrist_flex_r	wrist_dev_r	arm_flex_l	arm_add_l	arm_rot_l	elbow_flex_l	pro_sup_l	wrist_flex_l	wrist_dev_l
0	0	0	0	0	0.9399999999999999	0	0	0	0	0	0	0	0	0	0	0	0	0	0	0	0	0	0	0	0	0	0	0	0	89.99999999963507	0	0	0	0	0	0	89.99999999869995	0	0
0.02	20.61632000199193	9.699017142674812	30.7287774021055	0	0.9399999999999999	0	42.86698086483289	-16.54145403665467	4.270018960365591	73.0274651757853	1.274569711702953	0	0	0	52.14476445044678	-16.74712683100921	12.03635738858965	80.15631292863696	1.398991576863614	0	0	0	0	0	0	3.741093889463082	-3.741093889463082	0.6889159946968048	20.78014690689367	89.3110840456591	0	0	3.741093889463082	-3.741093889463082	0.6889159946968048	20.78014690689367	89.31108404485336	0	0
0.04	20.62305408234766	9.684412207004057	30.73307743555821	0	0.9399999999999999	0	42.82652656589107	-16.53697283314511	4.243004927318343	72.89427736237258	1.272245145835369	0	0	0	52.16300740402906	-16.73707066510236	12.07017832939253	80.18685518073609	1.399524639723718	0	0	0	0	0	0	4.405420902135068	-4.405420902135068	0.8125220185812345	23.41735348983605	89.18747802906574	0	0	4.405420902135068	-4.405420902135068	0.8125220185812345	23.41735348983605	89.1874780282831	0	0
0.06	20.59592996101459	9.697164934713836	30.71105495902199	0	0.9399999999999999	0	42.86047966521178	-16.5511644191312	4.281117127787687	72.97184291306314	1.273598920081042	0	0	0	52.20608180146111	-16.75676209896209	12.03621613038009	80.30646362429735	1.401612200877047	0	0	0	0	0	0	5.10986914406356	-5.10986914406356	0.9427767682468473	26.1614900013763	89.05722328707185	0	0	5.10986914406356	-5.10986914406356	0.9427767682468473	26.1614900013763	89.05722328631344	0	0
0.08	20.61143751110771	9.701526340951933	30.72634596795018	0	0.9399999999999999	0	42.84509463888898	-16.55338170353852	4.257372933789165	72.90840699457007	1.272491754439311	0	0	0	52.17566598263135	-16.73579664932147	12.07959662468066	80.20804212639814	1.399894421683961	0	0	0	0	0	0	5.520600284764505	-5.520600284764505	1.017606667904574	27.63374994095485	88.98239339180486	0	0	5.520600284764505	-5.520600284764505	1.017606667904574	27.63374994095485	88.98239339106046	0	0
0.1	20.59954379464064	9.717225706782777	30.70519214669519	0	0.9399999999999999	0	42.86150775632223	-16.55956421947151	4.257036358558623	72.92014408976142	1.27269660539502	0	0	0	52.16601268703725	-16.73392636944992	12.052299564383	80.22859855159925	1.400253198986161	0	0	0	0	0	0	5.861429505259071	-5.861429505259071	1.079626408823151	28.85550983213402	88.92037365452431	0	0	5.861429505259071	-5.861429505259071	1.079626408823151	28.85550983213402	88.92037365379154	0	0
0.12	20.62866895866155	9.719818766417461	30.68829270173516	0	0.9399999999999999	0	42.80861337465113	-16.54738402612667	4.21308888106498	72.81254990094217	1.270818732544112	0	0	0	52.07898341477819	-16.76053081269061	12.04229634306837	80.01639343966481	1.396549521093342	0	0	0	0	0	0	6.233264467590036	-6.233264467590036	1.147025958690558	30.16874133053723	88.85297410860686	0	0	6.233264467590036	-6.233264467590036	1.147025958690558	30.16874133053723	88.85297410788672	0	0
0.14	20.61782939541264	9.740413479021248	30.65881665721763	0	0.9399999999999999	0	42.85397459668289	-16.54912741975694	4.253276078548759	72.94074493841386	1.27305615803271	0	0	0	52.13390685642453	-16.75289267485011	12.04291777514474	80.2263035816606	1.400213144204497	0	0	0	0	0	0	6.47489853940159	-6.47489853940159	1.190653288023467	31.00932082035778	88.80934678182834	0	0	6.47489853940159	-6.47489853940159	1.190653288023467	31.00932082035778	88.80934678111643	0	0
0.16	20.61347302510302	9.7545538013461	30.66404767445206	0	0.9399999999999999	0	42.86414300842497	-16.55604508005613	4.235107470465155	72.93477676423848	1.272951993743018	0	0	0	52.11756388613228	-16.73011723654511	12.03219162623423	80.21144591540117	1.399953829009107	0	0	0	0	0	0	6.700034215723613	-6.700034215723613	1.231244337210876	31.78945990761817	88.76875573501671	0	0	6.700034215723613	-6.700034215723613	1.231244337210876	31.78945990761817	88.76875573431242	0	0
0.18	20.6511891181572	9.767974555738661	30.65063922138626	0	0.9399999999999999	0	42.82837096226277	-16.54414056286736	4.207629267769591	72.93152612223437	1.272895259337242	0	0	0	52.0697710398849	-16.74362526110543	12.03714306662707	80.16134472078227	1.399079398203825	0	0	0	0	0	0	7.028468744655174	-7.028468744655174	1.290077367830556	32.89472599293195	88.7099227078351	0	0	7.028468744655174	-7.028468744655174	1.290077367830556	32.89472599293195	88.70992270714186	0	0
0.2	20.65741526479856	9.796205961687926	30.62299253950824	0	0.9399999999999999	0	42.82729444585324	-16.54745312897106	4.228132452082225	72.94882738618944	1.273197223358015	0	0	0	52.0556321521932	-16.73065613825749	12.0148250151408	80.21077752469976	1.399942163390678	0	0	0	0	0	0	7.266808979531356	-7.266808979531356	1.332579644517252	33.6824278073848	88.66742043362945	0	0	7.266808979531356	-7.266808979531356	1.332579644517252	33.6824278073848	88.66742043294417	0	0
0.22	20.64892278796493	9.805876065225503	30.62926505442511	0	0.9399999999999999	0	42.81890356144136	-16.55161767254729	4.19953108157357	72.93500163464114	1.272955918471934	0	0	0	52.06576947010374	-16.72758258547742	12.01478937818196	80.20045442169871	1.399761991254287	0	0	0	0	0	0	7.49894157583662	-7.49894157583662	1.373785487889037	34.43600200623901	88.62621459266035	0	0	7.49894157583662	-7.49894157583662	1.373785487889037	34.43600200623901	88.62621459198276	0	0
0.24	20.66309189911183	9.794576135086505	30.62977343362567	0	0.9399999999999999	0	42.80175812161026	-16.53863536250111	4.164816443094749	72.91547211271116	1.272615064012915	0	0	0	52.05901860174065	-16.73032797396911	12.03479231199475	80.17642243940143	1.399342554037419	0	0	0	0	0	0	7.709609170353273	-7.709609170353273	1.411169453114238	35.12093189071194	88.58883062961493	0	0	7.709609170353273	-7.709609170353273	1.411169453114238	35.12093189071194	88.58883062894435	0	0
0.26	20.66953911256172	9.808471390363771	30.62780870632321	0	0.9399999999999999	0	42.80365835346092	-16.54833149103193	4.174035309343319	72.91921758660349	1.272680434864384	0	0	0	52.05490963577789	-16.72744017827533	12.02700527894202	80.1980567793688	1.399720144501345	0	0	0	0	0	0	7.94195381312743	-7.94195381312743	1.452088098221767	35.85343862124775	88.54791198688915	0	0	7.94195381312743	-7.94195381312743	1.452088098221767	35.85343862124775	88.54791198622618	0	0
0.28	20.67537273937789	9.804242480857138	30.62774730704667	0	0.9399999999999999	0	42.79891511397442	-16.55354488026073	4.166126747223689	72.90925977415662	1.27250663825089	0	0	0	52.05229979896644	-16.7271145790725	12.02089594883314	80.17856295229753	1.399379913035137	0	0	0	0	0	0	8.103649710553501	-8.103649710553501	1.480867223079262	36.38934502654667	88.51913286371108	0	0	8.103649710553501	-8.103649710553501	1.480867223079262	36.38934502654667	88.51913286305393	0	0
0.3	20.67657791320409	9.80616189780854	30.62350631475668	0	0.9399999999999999	0	42.79596811782089	-16.54245572760086	4.180764842420939	72.91875612888698	1.272672380907872	0	0	0	52.05413466250424	-16.7286085403319	12.02222881695183	80.20221449645089	1.399792710353794	0	0	0	0	0	0	8.293854232549014	-8.293854232549014	1.514255018652746	36.98365400683343	88.48574507007945	0	0	8.293854232549014	-8.293854232549014	1.514255018652746	36.98365400683343	88.48574506942852	0	0
0.32	20.69131314366482	9.825785891620164	30.62982537879054	0	0.9399999999999999	0	42.7774302496207	-16.55214118271894	4.201734041852538	72.93156239281366	1.272895892378272	0	0	0	52.01939136872189	-16.71419825157636	12.00255740356613	80.19663160267314	1.399695270475583	0	0	0	0	0	0	8.493233838642935	-8.493233838642935	1.549047890085667	37.59142217346623	88.45095220066713	0	0	8.493233838642935	-8.493233838642935	1.549047890085667	37.59142217346623	88.45095220002277	0	0
0.34	20.72627533574015	9.816046899445558	30.62749026757775	0	0.9399999999999999	0	42.71653321341295	-16.54124151819309	4.175025330382525	72.8523169337528	1.271512798200406	0	0	0	51.96171764242363	-16.73676126690098	11.9994639591733	80.05007736831205	1.397137416553243	0	0	0	0	0	0	8.779715056499347	-8.779715056499347	1.598802721567229	38.45055927590476	88.40119737207186	0	0	8.779715056499347	-8.779715056499347	1.598802721567229	38.45055927590476	88.40119737143682	0	0
0.36	20.67720648716943	9.828281443182879	30.63790322648415	0	0.9399999999999999	0	42.80147848440897	-16.56731236191797	4.246609875813008	72.96476447958779	1.273475378111014	0	0	0	52.04546990833047	-16.69581815656555	11.97000175300911	80.2549063609046	1.400712356877526	0	0	0	0	0	0	8.899178270626107	-8.899178270626107	1.619514730415947	38.80760266731951	88.38048536442412	0	0	8.899178270626107	-8.899178270626107	1.619514730415947	38.80760266731951	88.380485363793	0	0
0.3800000000000001	20.6881798939639	9.825571010041232	30.65698591171322	0	0.9399999999999999	0	42.76711314081627	-16.5757021712241	4.239405611155668	72.93764490077427	1.273002052168964	0	0	0	52.02775887275816	-16.68371707832705	11.97750474629034	80.20319465851445	1.399809817409006	0	0	0	0	0	0	9.099469602059681	-9.099469602059681	1.654135064825032	39.3997052563298	88.34586503202118	0	0	9.099469602059681	-9.099469602059681	1.654135064825032	39.3997052563298	88.34586503139657	0	0
0.4000000000000001	20.68252690914061	9.829900093379376	30.66299730748569	0	0.9399999999999999	0	42.78441030736143	-16.58209506020495	4.257332021042139	72.95516406547978	1.273307819275274	0	0	0	52.04688843905227	-16.67844894288461	11.96213330894521	80.23653084375817	1.400391643601564	0	0	0	0	0	0	9.279707472980798	-9.279707472980798	1.685137662155112	39.92385347503264	88.31486243648556	0	0	9.279707472980798	-9.279707472980798	1.685137662155112	39.92385347503264	88.31486243586674	0	0
0.4200000000000001	20.72061267643544	9.806701980506924	30.67729670374739	0	0.9399999999999999	0	42.72840055683394	-16.57757015746741	4.210035399526566	72.91569179166126	1.272618898133892	0	0	0	52.01744864822197	-16.71049527977985	11.99570479608888	80.15089037897128	1.398896935518094	0	0	0	0	0	0	9.467978348946785	-9.467978348946785	1.717473416488346	40.46943972368498	88.28252668402335	0	0	9.467978348946785	-9.467978348946785	1.717473416488346	40.46943972368498	88.28252668341061	0	0
0.4400000000000001	20.69996859152534	9.797119874936927	30.69582098089019	0	0.9399999999999999	0	42.77487914220036	-16.56813908373733	4.221576863864748	72.95218613202077	1.273255844531509	0	0	0	52.07456020020233	-16.65673251128374	12.03029874984322	80.21049492305538	1.399937231061512	0	0	0	0	0	0	9.64745604035314	-9.64745604035314	1.748700252954104	41.01497669352948	88.25129984937	0	0	9.64745604035314	-9.64745604035314	1.748700252954104	41.01497669352948	88.25129984876303	0	0
